PathFileType	3	(X/Y/Z)	walking_2__view2_aligned.trc
DataRate	CameraRate	NumFrames	NumMarkers	Units	OrigDataRate	OrigDataStartFrame	OrigNumFrames
100.0	100.0	10	19	mm	100.0	5742	6310
Frame#	Time	pelvis			neck			head			hip_left			hip_right			knee_left			knee_right			ankle_left			ankle_right			heel_left			heel_right			toe_left			toe_right			shoulder_left			shoulder_right			elbow_left			elbow_right			wrist_left			wrist_right			
		X1	Y1	Z1	X2	Y2	Z2	X3	Y3	Z3	X4	Y4	Z4	X5	Y5	Z5	X6	Y6	Z6	X7	Y7	Z7	X8	Y8	Z8	X9	Y9	Z9	X10	Y10	Z10	X11	Y11	Z11	X12	Y12	Z12	X13	Y13	Z13	X14	Y14	Z14	X15	Y15	Z15	X16	Y16	Z16	X17	Y17	Z17	X18	Y18	Z18	X19	Y19	Z19	
5742	57.41000	64.277121	944.843824	102.291092	45.091693	1497.623159	171.683295	15.465618	1583.657907	316.948990	140.103796	949.099862	107.175000	-11.549600	940.587792	97.407174	161.063948	504.623053	61.384552	-90.458236	559.618967	328.344726	163.333336	109.773065	-85.193841	-128.060411	179.737948	268.989923	160.907847	66.390436	-127.138584	-127.796239	139.339484	234.862375	149.453045	27.339607	90.229220	-148.874237	108.924302	425.637225	226.118800	1441.140393	172.797235	-117.598716	1447.380170	97.604639	301.077274	1158.209590	179.682970	-171.755413	1167.964910	16.563213	272.591405	928.652250	312.882088	-238.587093	901.512503	12.279044
5743	57.42000	63.388444	944.936854	102.391774	43.902339	1497.716236	171.969546	13.620727	1583.783781	317.218098	139.138106	949.073324	107.494345	-12.361313	940.800394	97.289189	160.363307	504.375628	59.490017	-90.035320	559.609540	327.922390	163.423001	113.488873	-93.141484	-127.298819	175.826646	276.298517	161.128861	71.199846	-135.568243	-127.169043	134.049146	242.803872	149.479229	28.234614	79.043476	-148.155620	108.635029	437.044463	225.105214	1441.019911	174.075253	-118.643640	1447.550082	97.003887	299.333048	1157.865045	181.751706	-172.586137	1168.296653	14.428207	269.111785	928.518143	315.308660	-240.035692	901.468125	7.493728
5744	57.43000	62.499767	945.029884	102.492455	42.712985	1497.809314	172.255798	11.775837	1583.909655	317.487207	138.172416	949.046787	107.813689	-13.173025	941.012995	97.171204	159.662665	504.128204	57.595483	-89.612404	559.600114	327.500053	163.512666	117.204681	-101.089126	-126.537228	171.915344	283.607111	161.349875	76.009256	-143.997901	-126.541847	128.758809	250.745368	149.505412	29.129622	67.857732	-147.437003	108.345756	448.451701	224.091627	1440.899429	175.353270	-119.688565	1447.719993	96.403134	297.588823	1157.520500	183.820441	-173.416861	1168.628396	12.293201	265.632165	928.384035	317.735231	-241.484290	901.423748	2.708411
5745	57.44000	61.611089	945.122913	102.593137	41.523631	1497.902392	172.542050	9.930947	1584.035529	317.756316	137.206726	949.020249	108.133034	-13.984738	941.225597	97.053219	158.962024	503.880780	55.700948	-89.189489	559.590688	327.077716	163.602330	120.920489	-109.036769	-125.775636	168.004043	290.915705	161.570889	80.818666	-152.427559	-125.914651	123.468471	258.686865	149.531595	30.024629	56.671988	-146.718386	108.056483	459.858939	223.078041	1440.778947	176.631288	-120.733490	1447.889905	95.802382	295.844597	1157.175955	185.889177	-174.247585	1168.960138	10.158195	262.152544	928.249928	320.161803	-242.932889	901.379370	-2.076905
5746	57.45000	60.722412	945.215943	102.693818	40.334277	1497.995470	172.828302	8.086056	1584.161402	318.025425	136.241036	948.993712	108.452378	-14.796450	941.438198	96.935234	158.261382	503.633355	53.806413	-88.766573	559.581261	326.655380	163.691995	124.636297	-116.984412	-125.014044	164.092741	298.224299	161.791903	85.628076	-160.857218	-125.287455	118.178133	266.628361	149.557779	30.919637	45.486244	-145.999768	107.767210	471.266178	222.064454	1440.658465	177.909306	-121.778415	1448.059816	95.201629	294.100371	1156.831410	187.957912	-175.078309	1169.291881	8.023190	258.672924	928.115821	322.588374	-244.381488	901.334993	-6.862222
5747	57.46000	59.833735	945.308972	102.794499	39.144923	1498.088548	173.114554	6.241166	1584.287276	318.294534	135.275345	948.967174	108.771722	-15.608162	941.650800	96.817248	157.560741	503.385931	51.911878	-88.343657	559.571835	326.233043	163.781660	128.352105	-124.932055	-124.252453	160.181439	305.532893	162.012917	90.437486	-169.286876	-124.660259	112.887796	274.569858	149.583962	31.814645	34.300500	-145.281151	107.477937	482.673416	221.050868	1440.537983	179.187323	-122.823340	1448.229728	94.600877	292.356146	1156.486865	190.026648	-175.909033	1169.623624	5.888184	255.193303	927.981714	325.014946	-245.830086	901.290615	-11.647538
5748	57.47000	58.945057	945.402002	102.895181	37.955569	1498.181626	173.400805	4.396276	1584.413150	318.563643	134.309655	948.940637	109.091067	-16.419875	941.863401	96.699263	156.860100	503.138506	50.017344	-87.920742	559.562409	325.810707	163.871324	132.067913	-132.879698	-123.490861	156.270138	312.841487	162.233931	95.246896	-177.716535	-124.033062	107.597458	282.511355	149.610145	32.709652	23.114756	-144.562534	107.188664	494.080654	220.037281	1440.417501	180.465341	-123.868265	1448.399639	94.000124	290.611920	1156.142320	192.095383	-176.739757	1169.955366	3.753178	251.713683	927.847607	327.441517	-247.278685	901.246238	-16.432855
5749	57.48000	58.056380	945.495032	102.995862	36.766215	1498.274703	173.687057	2.551386	1584.539024	318.832751	133.343965	948.914099	109.410411	-17.231587	942.076003	96.581278	156.159458	502.891082	48.122809	-87.497826	559.552983	325.388370	163.960989	135.783721	-140.827341	-122.729270	152.358836	320.150081	162.454944	100.056306	-186.146193	-123.405866	102.307121	290.452851	149.636329	33.604660	11.929012	-143.843917	106.899391	505.487892	219.023695	1440.297019	181.743358	-124.913190	1448.569551	93.399372	288.867694	1155.797774	194.164119	-177.570482	1170.287109	1.618172	248.234063	927.713500	329.868089	-248.727283	901.201860	-21.218171
5750	57.49000	57.167703	945.588061	103.096543	35.576861	1498.367781	173.973309	0.706495	1584.664897	319.101860	132.378275	948.887562	109.729756	-18.043300	942.288604	96.463293	155.458817	502.643658	46.228274	-87.074910	559.543556	324.966034	164.050653	139.499529	-148.774984	-121.967678	148.447535	327.458675	162.675958	104.865716	-194.575851	-122.778670	97.016783	298.394348	149.662512	34.499668	0.743268	-143.125300	106.610118	516.895130	218.010108	1440.176537	183.021376	-125.958115	1448.739462	92.798619	287.123468	1155.453229	196.232854	-178.401206	1170.618852	-0.516834	244.754442	927.579393	332.294661	-250.175882	901.157483	-26.003488
5751	57.50000	56.279025	945.681091	103.197225	34.387507	1498.460859	174.259561	-1.138395	1584.790771	319.370969	131.412585	948.861024	110.049100	-18.855012	942.501206	96.345308	154.758175	502.396233	44.333739	-86.651994	559.534130	324.543697	164.140318	143.215337	-156.722627	-121.206087	144.536233	334.767269	162.896972	109.675126	-203.005510	-122.151474	91.726446	306.335844	149.688695	35.394675	-10.442476	-142.406683	106.320845	528.302369	216.996522	1440.056055	184.299393	-127.003040	1448.909374	92.197867	285.379243	1155.108684	198.301590	-179.231930	1170.950595	-2.651840	241.274822	927.445286	334.721232	-251.624481	901.113105	-30.788804
